<svg width="17" height="13" viewBox="0 0 17 13" fill="none" xmlns="http://www.w3.org/2000/svg">
<path d="M0.650002 2.74115e-05C0.47761 2.74115e-05 0.31228 0.0685096 0.190381 0.190409C0.0684821 0.312308 0 0.477638 0 0.650029C0 0.82242 0.0684821 0.98775 0.190381 1.10965C0.31228 1.23155 0.47761 1.30003 0.650002 1.30003H2.093L3.79861 8.12505C3.94356 8.70355 4.46161 9.10005 5.05766 9.10005H13.1632C13.7501 9.10005 14.2487 8.71005 14.4027 8.14455L16.0875 1.95003H14.7264L13.1625 7.80005H5.05701L3.35206 0.97503C3.28163 0.695028 3.11928 0.446759 2.891 0.269982C2.66272 0.0932047 2.38172 -0.00185441 2.093 2.74115e-05H0.650002ZM12.35 9.10005C11.2808 9.10005 10.4 9.9808 10.4 11.0501C10.4 12.1193 11.2808 13.0001 12.35 13.0001C13.4193 13.0001 14.3 12.1193 14.3 11.0501C14.3 9.9808 13.4193 9.10005 12.35 9.10005ZM6.50002 9.10005C5.43076 9.10005 4.55001 9.9808 4.55001 11.0501C4.55001 12.1193 5.43076 13.0001 6.50002 13.0001C7.56927 13.0001 8.45002 12.1193 8.45002 11.0501C8.45002 9.9808 7.56927 9.10005 6.50002 9.10005ZM8.45002 2.74115e-05V3.25003H6.50002L9.10002 5.85004L11.7 3.25003H9.75002V2.74115e-05H8.45002ZM6.50002 10.4001C6.86662 10.4001 7.15002 10.6835 7.15002 11.0501C7.15002 11.4167 6.86662 11.7001 6.50002 11.7001C6.13341 11.7001 5.85001 11.4167 5.85001 11.0501C5.85001 10.6835 6.13341 10.4001 6.50002 10.4001ZM12.35 10.4001C12.7166 10.4001 13 10.6835 13 11.0501C13 11.4167 12.7166 11.7001 12.35 11.7001C11.9834 11.7001 11.7 11.4167 11.7 11.0501C11.7 10.6835 11.9834 10.4001 12.35 10.4001Z" fill="#111111"/>
</svg>
