<svg width="16" height="16" viewBox="0 0 16 16" fill="none" xmlns="http://www.w3.org/2000/svg">
<g clip-path="url(#clip0_402_2977)">
<path d="M6.84521 14C6.96224 14.2027 7.13056 14.371 7.33324 14.488C7.53593 14.605 7.76584 14.6666 7.99988 14.6666C8.23392 14.6666 8.46383 14.605 8.66652 14.488C8.8692 14.371 9.03752 14.2027 9.15455 14" stroke="#0A0A0A" stroke-width="1.33333" stroke-linecap="round" stroke-linejoin="round"/>
<path d="M2.17467 10.2173C2.08758 10.3127 2.0301 10.4314 2.00924 10.5589C1.98837 10.6864 2.00501 10.8173 2.05714 10.9355C2.10926 11.0538 2.19462 11.1543 2.30284 11.2249C2.41105 11.2955 2.53745 11.3332 2.66667 11.3333H13.3333C13.4625 11.3333 13.589 11.2958 13.6972 11.2253C13.8055 11.1548 13.891 11.0544 13.9433 10.9363C13.9955 10.8181 14.0123 10.6873 13.9916 10.5598C13.9709 10.4322 13.9136 10.3135 13.8267 10.2179C12.94 9.30392 12 8.33259 12 5.33325C12 4.27239 11.5786 3.25497 10.8284 2.50482C10.0783 1.75468 9.06087 1.33325 8 1.33325C6.93914 1.33325 5.92172 1.75468 5.17157 2.50482C4.42143 3.25497 4 4.27239 4 5.33325C4 8.33259 3.05933 9.30392 2.17467 10.2173Z" stroke="#0A0A0A" stroke-width="1.33333" stroke-linecap="round" stroke-linejoin="round"/>
</g>
<defs>
<clipPath id="clip0_402_2977">
<rect width="16" height="16" fill="white"/>
</clipPath>
</defs>
</svg>
