<svg width="14" height="14" viewBox="0 0 14 14" fill="none" xmlns="http://www.w3.org/2000/svg">
<path d="M5.8335 7H8.16683" stroke="#364153" stroke-width="1.16667" stroke-linecap="round" stroke-linejoin="round"/>
<path d="M5.8335 4.6665H8.16683" stroke="#364153" stroke-width="1.16667" stroke-linecap="round" stroke-linejoin="round"/>
<path d="M8.16683 12.2502V10.5002C8.16683 10.1907 8.04391 9.894 7.82512 9.67521C7.60633 9.45641 7.30958 9.3335 7.00016 9.3335C6.69074 9.3335 6.394 9.45641 6.17521 9.67521C5.95641 9.894 5.8335 10.1907 5.8335 10.5002V12.2502" stroke="#364153" stroke-width="1.16667" stroke-linecap="round" stroke-linejoin="round"/>
<path d="M3.49984 5.8335H2.33317C2.02375 5.8335 1.72701 5.95641 1.50821 6.17521C1.28942 6.394 1.1665 6.69074 1.1665 7.00016V11.0835C1.1665 11.3929 1.28942 11.6897 1.50821 11.9085C1.72701 12.1272 2.02375 12.2502 2.33317 12.2502H11.6665C11.9759 12.2502 12.2727 12.1272 12.4915 11.9085C12.7103 11.6897 12.8332 11.3929 12.8332 11.0835V5.25016C12.8332 4.94074 12.7103 4.644 12.4915 4.4252C12.2727 4.20641 11.9759 4.0835 11.6665 4.0835H10.4998" stroke="#364153" stroke-width="1.16667" stroke-linecap="round" stroke-linejoin="round"/>
<path d="M3.5 12.25V2.91667C3.5 2.60725 3.62292 2.3105 3.84171 2.09171C4.0605 1.87292 4.35725 1.75 4.66667 1.75H9.33333C9.64275 1.75 9.9395 1.87292 10.1583 2.09171C10.3771 2.3105 10.5 2.60725 10.5 2.91667V12.25" stroke="#364153" stroke-width="1.16667" stroke-linecap="round" stroke-linejoin="round"/>
</svg>
