<svg width="19" height="16" viewBox="0 0 19 16" fill="none" xmlns="http://www.w3.org/2000/svg">
<path d="M1.66667 15.8333C1.20833 15.8333 0.815835 15.67 0.489168 15.3433C0.162501 15.0167 -0.000554141 14.6244 1.41483e-06 14.1667V3.33333H1.66667V14.1667H15.8333V15.8333H1.66667ZM5 12.5C4.54167 12.5 4.14917 12.3367 3.8225 12.01C3.49583 11.6833 3.33278 11.2911 3.33333 10.8333V1.66667C3.33333 1.20833 3.49667 0.815835 3.82333 0.489168C4.15 0.162501 4.54222 -0.000554141 5 1.41483e-06H9.16667L10.8333 1.66667H16.6667C17.125 1.66667 17.5175 1.83 17.8442 2.15667C18.1708 2.48333 18.3339 2.87556 18.3333 3.33333V10.8333C18.3333 11.2917 18.17 11.6842 17.8433 12.0108C17.5167 12.3375 17.1244 12.5006 16.6667 12.5H5ZM5 10.8333H16.6667V3.33333H10.1458L8.47917 1.66667H5V10.8333Z" fill="#111111"/>
</svg>
