<svg width="21" height="21" viewBox="0 0 21 21" fill="none" xmlns="http://www.w3.org/2000/svg">
<path d="M5.20088 19.0699C4.7411 19.0699 4.30016 18.8872 3.97504 18.5621C3.64993 18.237 3.46729 17.7961 3.46729 17.3363V3.46749C3.46729 3.00771 3.64993 2.56676 3.97504 2.24165C4.30016 1.91654 4.7411 1.73389 5.20088 1.73389H12.1353C12.4097 1.73344 12.6814 1.78729 12.9349 1.89231C13.1884 1.99734 13.4186 2.15148 13.6123 2.34585L16.7224 5.45593C16.9173 5.64966 17.0718 5.88009 17.1772 6.1339C17.2825 6.38772 17.3365 6.65988 17.3361 6.93468V17.3363C17.3361 17.7961 17.1534 18.237 16.8283 18.5621C16.5032 18.8872 16.0623 19.0699 15.6025 19.0699H5.20088Z" stroke="#1447E6" stroke-width="1.7336" stroke-linecap="round" stroke-linejoin="round"/>
<path d="M12.1353 1.73389V6.06788C12.1353 6.29777 12.2266 6.51825 12.3891 6.6808C12.5517 6.84336 12.7722 6.93468 13.0021 6.93468H17.336" stroke="#1447E6" stroke-width="1.7336" stroke-linecap="round" stroke-linejoin="round"/>
<path d="M8.66817 7.80127H6.93457" stroke="#1447E6" stroke-width="1.7336" stroke-linecap="round" stroke-linejoin="round"/>
<path d="M13.869 11.2686H6.93457" stroke="#1447E6" stroke-width="1.7336" stroke-linecap="round" stroke-linejoin="round"/>
<path d="M13.869 14.7358H6.93457" stroke="#1447E6" stroke-width="1.7336" stroke-linecap="round" stroke-linejoin="round"/>
</svg>
