<svg width="16" height="16" viewBox="0 0 16 16" fill="none" xmlns="http://www.w3.org/2000/svg">
<g clip-path="url(#clip0_372_3395)">
<path d="M6.46572 12.932C6.46566 13.0521 6.49908 13.1699 6.56224 13.2721C6.6254 13.3743 6.71578 13.4569 6.82326 13.5106L8.11639 14.1572C8.21498 14.2065 8.32454 14.2297 8.43465 14.2247C8.54476 14.2198 8.65177 14.1867 8.74551 14.1287C8.83925 14.0707 8.91661 13.9898 8.97025 13.8935C9.02388 13.7972 9.05201 13.6888 9.05196 13.5785V9.05261C9.05211 8.73216 9.17123 8.42318 9.38623 8.18557L14.0563 3.02019C14.14 2.92744 14.1951 2.81244 14.2148 2.68907C14.2345 2.56571 14.2181 2.43927 14.1675 2.32505C14.1169 2.21083 14.0343 2.11372 13.9296 2.04546C13.825 1.97721 13.7028 1.94072 13.5779 1.94043H1.93979C1.81474 1.94047 1.6924 1.97678 1.58757 2.04494C1.48274 2.1131 1.39993 2.21019 1.34915 2.32446C1.29838 2.43873 1.28184 2.56527 1.30152 2.68875C1.3212 2.81224 1.37626 2.92736 1.46004 3.02019L6.13144 8.18557C6.34645 8.42318 6.46557 8.73216 6.46572 9.05261V12.932Z" stroke="#0A0A0A" stroke-width="1.29312" stroke-linecap="round" stroke-linejoin="round"/>
</g>
<defs>
<clipPath id="clip0_372_3395">
<rect width="15.5175" height="15.5175" fill="white"/>
</clipPath>
</defs>
</svg>
