<svg width="24" height="24" viewBox="0 0 24 24" fill="none" xmlns="http://www.w3.org/2000/svg">
<path fill-rule="evenodd" clip-rule="evenodd" d="M2.4001 4.7998C2.18792 4.7998 1.98444 4.88409 1.83441 5.03412C1.68438 5.18415 1.6001 5.38763 1.6001 5.5998C1.6001 5.81198 1.68438 6.01546 1.83441 6.16549C1.98444 6.31552 2.18792 6.3998 2.4001 6.3998H21.6001C21.8123 6.3998 22.0158 6.31552 22.1658 6.16549C22.3158 6.01546 22.4001 5.81198 22.4001 5.5998C22.4001 5.38763 22.3158 5.18415 22.1658 5.03412C22.0158 4.88409 21.8123 4.7998 21.6001 4.7998H2.4001ZM1.6001 11.9998C1.6001 11.7876 1.68438 11.5841 1.83441 11.4341C1.98444 11.2841 2.18792 11.1998 2.4001 11.1998H21.6001C21.8123 11.1998 22.0158 11.2841 22.1658 11.4341C22.3158 11.5841 22.4001 11.7876 22.4001 11.9998C22.4001 12.212 22.3158 12.4155 22.1658 12.5655C22.0158 12.7155 21.8123 12.7998 21.6001 12.7998H2.4001C2.18792 12.7998 1.98444 12.7155 1.83441 12.5655C1.68438 12.4155 1.6001 12.212 1.6001 11.9998ZM1.6001 18.3998C1.6001 18.1876 1.68438 17.9841 1.83441 17.8341C1.98444 17.6841 2.18792 17.5998 2.4001 17.5998H21.6001C21.8123 17.5998 22.0158 17.6841 22.1658 17.8341C22.3158 17.9841 22.4001 18.1876 22.4001 18.3998C22.4001 18.612 22.3158 18.8155 22.1658 18.9655C22.0158 19.1155 21.8123 19.1998 21.6001 19.1998H2.4001C2.18792 19.1998 1.98444 19.1155 1.83441 18.9655C1.68438 18.8155 1.6001 18.612 1.6001 18.3998Z" fill="#111111"/>
</svg>
