<svg width="16" height="15" viewBox="0 0 16 15" fill="none" xmlns="http://www.w3.org/2000/svg">
<path d="M14.1791 0.246079C14.008 0.109565 13.8124 0.0269767 13.6094 0.00557401C13.4064 -0.0158287 13.2023 0.0246098 13.0149 0.123335L6.87562 3.10603C6.73042 3.17961 6.57488 3.21715 6.41791 3.2165H2.48756C2.15769 3.2165 1.84133 3.37815 1.60808 3.66589C1.37482 3.95363 1.24378 4.34389 1.24378 4.75081V4.87356H0V8.5559H1.24378V8.71547C1.25158 9.11598 1.38605 9.49684 1.61846 9.77666C1.85088 10.0565 2.1628 10.2131 2.48756 10.213L3.9801 14.1162C4.08116 14.3791 4.24028 14.6014 4.43917 14.7578C4.63805 14.9141 4.86865 14.9981 5.10448 15H5.73134C6.05949 14.9968 6.3733 14.8337 6.6044 14.5463C6.83551 14.2589 6.96518 13.8705 6.96517 13.4657V10.3602L13.0149 13.3429C13.1639 13.4152 13.3225 13.4526 13.4826 13.4534C13.731 13.4478 13.9728 13.354 14.1791 13.1834C14.3428 13.0471 14.4778 12.8646 14.5729 12.6512C14.6681 12.4378 14.7207 12.1994 14.7264 11.9559V1.51035C14.7255 1.26058 14.6751 1.01487 14.5798 0.794544C14.4844 0.574219 14.3469 0.385947 14.1791 0.246079ZM5.72139 4.75081V8.71547H2.48756V4.75081H5.72139ZM5.72139 13.4657H5.09453L3.87065 10.213H5.72139V13.4657ZM7.33333 8.89958C7.21517 8.82516 7.09199 8.76356 6.96517 8.71547V4.66489C7.09074 4.63269 7.2139 4.58752 7.33333 4.52987L13.4826 1.51035V11.9191L7.33333 8.89958ZM14.7562 5.18042V8.24904C15.0861 8.24904 15.4025 8.08739 15.6357 7.79965C15.869 7.51191 16 7.12165 16 6.71473C16 6.3078 15.869 5.91755 15.6357 5.62981C15.4025 5.34207 15.0861 5.18042 14.7562 5.18042Z" fill="#111111"/>
</svg>
