<svg width="20" height="17" viewBox="0 0 20 17" fill="none" xmlns="http://www.w3.org/2000/svg">
<path d="M0.833374 15.8334V14.1667C0.833374 13.2827 1.2548 12.4348 2.00495 11.8097C2.75509 11.1846 3.77251 10.8334 4.83337 10.8334H8.83337C9.89424 10.8334 10.9117 11.1846 11.6618 11.8097C12.4119 12.4348 12.8334 13.2827 12.8334 14.1667V15.8334M13.8334 0.941707C14.6938 1.12529 15.4564 1.54229 16.001 2.12697C16.5456 2.71164 16.8412 3.43073 16.8412 4.17087C16.8412 4.91102 16.5456 5.63011 16.001 6.21478C15.4564 6.79946 14.6938 7.21646 13.8334 7.40004M18.8334 15.8334V14.1667C18.8283 13.431 18.5313 12.7174 17.9886 12.137C17.446 11.5567 16.6882 11.1423 15.8334 10.9584M2.83337 4.16671C2.83337 5.05076 3.2548 5.89861 4.00495 6.52373C4.75509 7.14885 5.77251 7.50004 6.83337 7.50004C7.89424 7.50004 8.91166 7.14885 9.6618 6.52373C10.4119 5.89861 10.8334 5.05076 10.8334 4.16671C10.8334 3.28265 10.4119 2.43481 9.6618 1.80968C8.91166 1.18456 7.89424 0.833374 6.83337 0.833374C5.77251 0.833374 4.75509 1.18456 4.00495 1.80968C3.2548 2.43481 2.83337 3.28265 2.83337 4.16671Z" stroke="#111111" stroke-width="1.66667" stroke-linecap="round" stroke-linejoin="round"/>
</svg>
