<svg width="24" height="24" viewBox="0 0 24 24" fill="none" xmlns="http://www.w3.org/2000/svg">
<path d="M14.0001 20H14.7501V19.25H14.0001V20ZM10.0001 20V19.25H9.25005V20H10.0001ZM18.0001 16H17.2501V16.3107L17.4697 16.5303L18.0001 16ZM13.5001 4.68H12.7501V5.27259L13.3266 5.40966L13.5001 4.68ZM10.5001 4.68L10.673 5.4098L11.2501 5.27306V4.68H10.5001ZM6.00005 16L6.53038 16.5303L6.75005 16.3107V16H6.00005ZM12.0001 22V22.75C13.5143 22.75 14.7501 21.5142 14.7501 20H14.0001H13.2501C13.2501 20.6858 12.6858 21.25 12.0001 21.25V22ZM14.0001 20V19.25H10.0001V20V20.75H14.0001V20ZM10.0001 20H9.25005C9.25005 21.5118 10.4734 22.75 12.0001 22.75V22V21.25C11.3067 21.25 10.7501 20.6882 10.7501 20H10.0001ZM18.0001 16H18.7501V11H18.0001H17.2501V16H18.0001ZM18.0001 11H18.7501C18.7501 7.66778 16.9479 4.72885 13.6735 3.95034L13.5001 4.68L13.3266 5.40966C15.7722 5.99115 17.2501 8.19222 17.2501 11H18.0001ZM13.5001 4.68H14.2501V4H13.5001H12.7501V4.68H13.5001ZM13.5001 4H14.2501C14.2501 2.75579 13.2443 1.75 12.0001 1.75V2.5V3.25C12.4158 3.25 12.7501 3.58421 12.7501 4H13.5001ZM12.0001 2.5V1.75C10.7558 1.75 9.75005 2.75579 9.75005 4H10.5001H11.2501C11.2501 3.58421 11.5843 3.25 12.0001 3.25V2.5ZM10.5001 4H9.75005V4.68H10.5001H11.2501V4H10.5001ZM10.5001 4.68L10.3271 3.9502C7.04177 4.72862 5.25005 7.65844 5.25005 11H6.00005H6.75005C6.75005 8.18156 8.21833 5.99138 10.673 5.4098L10.5001 4.68ZM6.00005 11H5.25005V16H6.00005H6.75005V11H6.00005ZM6.00005 16L5.46972 15.4697L4.17972 16.7597L4.71005 17.29L5.24038 17.8203L6.53038 16.5303L6.00005 16ZM4.71005 17.29L4.17972 16.7597C3.08612 17.8533 3.83934 19.75 5.41005 19.75V19V18.25C5.20076 18.25 5.07398 17.9867 5.24038 17.8203L4.71005 17.29ZM5.41005 19V19.75H18.5801V19V18.25H5.41005V19ZM18.5801 19V19.75C20.1348 19.75 20.9253 17.8646 19.8204 16.7597L19.2901 17.29L18.7597 17.8203C18.9148 17.9754 18.8053 18.25 18.5801 18.25V19ZM19.2901 17.29L19.8204 16.7597L18.5304 15.4697L18.0001 16L17.4697 16.5303L18.7597 17.8203L19.2901 17.29Z" fill="#111111"/>
</svg>
