<svg width="16" height="16" viewBox="0 0 16 16" fill="none" xmlns="http://www.w3.org/2000/svg">
<path d="M4.00016 12H2.66683C2.31321 12 1.97407 11.8595 1.72402 11.6095C1.47397 11.3594 1.3335 11.0203 1.3335 10.6667V7.33333C1.3335 6.97971 1.47397 6.64057 1.72402 6.39052C1.97407 6.14048 2.31321 6 2.66683 6H13.3335C13.6871 6 14.0263 6.14048 14.2763 6.39052C14.5264 6.64057 14.6668 6.97971 14.6668 7.33333V10.6667C14.6668 11.0203 14.5264 11.3594 14.2763 11.6095C14.0263 11.8595 13.6871 12 13.3335 12H12.0002" stroke="#0A0A0A" stroke-width="1.33333" stroke-linecap="round" stroke-linejoin="round"/>
<path d="M4 6.00016V2.00016C4 1.82335 4.07024 1.65378 4.19526 1.52876C4.32029 1.40373 4.48986 1.3335 4.66667 1.3335H11.3333C11.5101 1.3335 11.6797 1.40373 11.8047 1.52876C11.9298 1.65378 12 1.82335 12 2.00016V6.00016" stroke="#0A0A0A" stroke-width="1.33333" stroke-linecap="round" stroke-linejoin="round"/>
<path d="M11.3333 9.3335H4.66667C4.29848 9.3335 4 9.63197 4 10.0002V14.0002C4 14.3684 4.29848 14.6668 4.66667 14.6668H11.3333C11.7015 14.6668 12 14.3684 12 14.0002V10.0002C12 9.63197 11.7015 9.3335 11.3333 9.3335Z" stroke="#0A0A0A" stroke-width="1.33333" stroke-linecap="round" stroke-linejoin="round"/>
</svg>
