<svg width="16" height="17" viewBox="0 0 16 17" fill="none" xmlns="http://www.w3.org/2000/svg">
<path d="M15.8384 4.26642H15.8308C15.7203 4.08621 15.5642 3.93592 15.3769 3.82962L8.60771 0.150211C8.42291 0.0516893 8.21512 0 8.00386 0C7.79261 0 7.58482 0.0516893 7.40002 0.150211L0.63082 3.81482C0.439684 3.91875 0.280467 4.06943 0.169283 4.25161C0.169283 4.25258 0.169084 4.25354 0.168698 4.25444C0.168311 4.25534 0.167745 4.25616 0.16703 4.25684C0.166316 4.25753 0.165468 4.25808 0.164535 4.25845C0.163602 4.25882 0.162601 4.25901 0.161591 4.25901V4.27382C0.0538938 4.44847 -0.00197815 4.64819 5.34957e-05 4.85127V12.1509C0.000442424 12.3619 0.0590423 12.5691 0.169864 12.7512C0.280687 12.9333 0.439757 13.0838 0.63082 13.1873L7.40002 16.8519C7.57044 16.9414 7.75991 16.9921 7.95386 17H8.06156C8.25288 16.9909 8.4396 16.9403 8.60771 16.8519L15.3769 13.1873C15.566 13.0823 15.7231 12.9312 15.8325 12.7493C15.9418 12.5674 15.9996 12.361 16 12.1509V4.85127C16.0011 4.64597 15.9453 4.44408 15.8384 4.26642ZM8.00002 1.18667L14.1385 4.50332L11.7769 5.79148L5.57695 2.49704L8.00002 1.18667ZM8.06925 7.81997L1.87697 4.50332L4.31542 3.18554L10.5231 6.47999L8.06925 7.81997ZM1.23082 5.51016L7.45387 8.84903L7.39233 15.4897L1.23082 12.1509V5.51016ZM8.62309 15.4823L8.68463 8.84903L11.1539 7.49423V10.3149C11.1539 10.4719 11.2187 10.6226 11.3341 10.7337C11.4495 10.8447 11.606 10.9071 11.7692 10.9071C11.9324 10.9071 12.089 10.8447 12.2044 10.7337C12.3198 10.6226 12.3846 10.4719 12.3846 10.3149V6.82054L14.7692 5.51756V12.1509L8.62309 15.4823Z" fill="#111111"/>
</svg>
