<svg width="20" height="20" viewBox="0 0 20 20" fill="none" xmlns="http://www.w3.org/2000/svg">
<path fill-rule="evenodd" clip-rule="evenodd" d="M12.9167 11.6662H12.2584L12.025 11.4412C13.025 10.2745 13.5417 8.68288 13.2584 6.99121C12.8667 4.67454 10.9334 2.82454 8.60003 2.54121C5.07503 2.10788 2.10837 5.07454 2.5417 8.59954C2.82503 10.9329 4.67503 12.8662 6.9917 13.2579C8.68337 13.5412 10.275 13.0245 11.4417 12.0245L11.6667 12.2579V12.9162L15.2084 16.4579C15.55 16.7995 16.1084 16.7995 16.45 16.4579C16.7917 16.1162 16.7917 15.5579 16.45 15.2162L12.9167 11.6662ZM7.9167 11.6662C5.8417 11.6662 4.1667 9.99121 4.1667 7.91621C4.1667 5.84121 5.8417 4.16621 7.9167 4.16621C9.9917 4.16621 11.6667 5.84121 11.6667 7.91621C11.6667 9.99121 9.9917 11.6662 7.9167 11.6662Z" fill="#969696"/>
</svg>
