<svg width="14" height="14" viewBox="0 0 14 14" fill="none" xmlns="http://www.w3.org/2000/svg">
<path d="M7.34167 1.50834C7.12293 1.28953 6.82623 1.16657 6.51684 1.1665H2.33317C2.02375 1.1665 1.72701 1.28942 1.50821 1.50821C1.28942 1.72701 1.1665 2.02375 1.1665 2.33317V6.51684C1.16657 6.82623 1.28953 7.12293 1.50834 7.34167L6.58567 12.419C6.8508 12.6825 7.2094 12.8303 7.58317 12.8303C7.95694 12.8303 8.31554 12.6825 8.58067 12.419L12.419 8.58067C12.6825 8.31554 12.8303 7.95694 12.8303 7.58317C12.8303 7.2094 12.6825 6.8508 12.419 6.58567L7.34167 1.50834Z" stroke="#364153" stroke-width="1.16667" stroke-linecap="round" stroke-linejoin="round"/>
<path d="M4.37516 4.66683C4.53625 4.66683 4.66683 4.53625 4.66683 4.37516C4.66683 4.21408 4.53625 4.0835 4.37516 4.0835C4.21408 4.0835 4.0835 4.21408 4.0835 4.37516C4.0835 4.53625 4.21408 4.66683 4.37516 4.66683Z" fill="#364153" stroke="#364153" stroke-width="1.16667" stroke-linecap="round" stroke-linejoin="round"/>
</svg>
