<svg width="20" height="20" viewBox="0 0 20 20" fill="none" xmlns="http://www.w3.org/2000/svg">
<path d="M10.6246 0V1.95998C14.8842 2.48393 17.9018 6.35537 17.3778 10.6149C16.9315 14.1468 14.1565 16.9509 10.6246 17.3681V19.3087C15.9612 18.775 19.8423 14.04 19.3087 8.70345C18.872 4.0946 15.2141 0.456034 10.6246 0ZM8.68405 0.0291085C6.79199 0.213463 4.98726 0.941176 3.51243 2.16373L4.89994 3.59976C5.98666 2.7265 7.29654 2.16373 8.68405 1.96968V0.0291085ZM2.14433 3.53184C0.931903 5.00455 0.185415 6.8049 0 8.70345H1.94057C2.12492 7.32565 2.66828 6.01576 3.53184 4.91934L2.14433 3.53184ZM0.00970284 10.644C0.20376 12.5458 0.950879 14.3408 2.15403 15.8156L3.53184 14.4281C2.67492 13.3314 2.12867 12.0244 1.95027 10.644H0.00970284ZM4.89994 15.8545L3.51243 17.1837C4.98238 18.4086 6.78167 19.1715 8.68405 19.3766V17.436C7.3037 17.2576 5.9967 16.7114 4.89994 15.8545ZM10.1395 4.82231V9.91631L14.5058 12.507L13.778 13.7004L8.68405 10.644V4.82231H10.1395Z" fill="#111111"/>
</svg>
