<svg width="22" height="21" viewBox="0 0 22 21" fill="none" xmlns="http://www.w3.org/2000/svg">
<path fill-rule="evenodd" clip-rule="evenodd" d="M2.8705 4.6904L3.56531 5.3263L3.68577 5.43618L5.36972 6.97693L5.37074 6.97568L6.44427 7.95802L8.71994 7.40024L9.32934 5.31883L8.25582 4.33649L8.25684 4.33556L6.57255 2.79481L6.45243 2.68493L5.75762 2.04934C6.73215 1.68267 7.80398 1.58982 8.83642 1.78265C9.86886 1.97547 10.8151 2.44523 11.5545 3.13201C12.2939 3.81878 12.793 4.69146 12.988 5.63874C13.1831 6.58602 13.0653 7.56497 12.6496 8.45075L12.6632 8.4632L10.8091 10.159C10.2498 10.0052 9.65536 9.99294 9.08901 10.1235C8.52266 10.254 8.00555 10.5225 7.59265 10.9004L7.10165 11.3495C6.29419 11.2548 5.52138 10.9914 4.84309 10.5796C4.16479 10.1678 3.5992 9.61872 3.19011 8.97488C2.78102 8.33104 2.53941 7.60971 2.48399 6.86674C2.42856 6.12377 2.56082 5.3791 2.8705 4.6904ZM12.9242 13.9841L17.8281 18.47C18.0171 18.6457 18.2422 18.7855 18.4906 18.8812C18.7389 18.9769 19.0056 19.0267 19.2751 19.0277C19.5446 19.0288 19.8116 18.9809 20.0608 18.8871C20.31 18.7932 20.5364 18.6551 20.727 18.4808C20.9175 18.3064 21.0685 18.0993 21.1711 17.8714C21.2737 17.6434 21.326 17.3991 21.3249 17.1526C21.3238 16.9061 21.2694 16.6622 21.1647 16.435C21.0601 16.2078 20.9073 16.0018 20.7152 15.8289L14.8287 10.4441L12.9746 12.1398C13.1722 12.7439 13.1546 13.3898 12.9242 13.9841Z" fill="#1447E6"/>
<path d="M11.5625 11.4503L15.4122 7.92896" stroke="#1447E6" stroke-width="1.25" stroke-linecap="square" stroke-linejoin="round"/>
<path d="M20.2241 1.76636L22.149 3.52717L18.3619 7.87176L15.4122 7.92903L15.4748 5.23039L20.2241 1.76636ZM8.1942 11.4507C8.41538 11.2483 8.67797 11.0878 8.96696 10.9783C9.25595 10.8688 9.56569 10.8125 9.87849 10.8125C10.1913 10.8125 10.501 10.8688 10.79 10.9783C11.079 11.0878 11.3416 11.2483 11.5628 11.4507C11.784 11.653 11.9594 11.8932 12.0791 12.1576C12.1988 12.4219 12.2604 12.7053 12.2604 12.9914C12.2604 13.2775 12.1988 13.5609 12.0791 13.8252C11.9594 14.0896 11.784 14.3298 11.5628 14.5321L6.02843 19.5939C5.96524 19.6517 5.89021 19.6976 5.80762 19.7289C5.72504 19.7602 5.63653 19.7763 5.54713 19.7763C5.45774 19.7763 5.36923 19.7602 5.28665 19.7289C5.20406 19.6976 5.12903 19.6517 5.06583 19.5939L2.66019 17.3926C2.53261 17.2759 2.46094 17.1176 2.46094 16.9525C2.46094 16.7874 2.53261 16.6291 2.66019 16.5124L8.1942 11.4507Z" fill="#1447E6"/>
</svg>
