<svg width="17" height="17" viewBox="0 0 17 17" fill="none" xmlns="http://www.w3.org/2000/svg">
<path d="M0.833156 9.16649H1.66649V14.9998C1.66649 15.919 2.41399 16.6665 3.33316 16.6665H13.3332C14.2523 16.6665 14.9998 15.919 14.9998 14.9998V9.16649H15.8332C15.9979 9.16645 16.159 9.11756 16.296 9.02599C16.433 8.93442 16.5398 8.80428 16.6029 8.65203C16.6659 8.49978 16.6824 8.33226 16.6503 8.17063C16.6182 8.009 16.5388 7.86053 16.4223 7.74399L8.92232 0.243989C8.76605 0.0877627 8.55413 0 8.33316 0C8.11219 0 7.90026 0.0877627 7.74399 0.243989L0.243989 7.74399C0.127481 7.86053 0.0481425 8.009 0.0160029 8.17063C-0.0161367 8.33226 0.000365792 8.49978 0.0634242 8.65203C0.126483 8.80428 0.233265 8.93442 0.370274 9.02599C0.507282 9.11756 0.668364 9.16645 0.833156 9.16649ZM6.66649 14.9998V10.8332H9.99982V14.9998H6.66649ZM8.33316 2.01149L13.3332 7.01149V10.8332L13.334 14.9998H11.6665V10.8332C11.6665 9.91399 10.919 9.16649 9.99982 9.16649H6.66649C5.74732 9.16649 4.99982 9.91399 4.99982 10.8332V14.9998H3.33316V7.01149L8.33316 2.01149Z" fill="#111111"/>
</svg>
